<?xml version="1.0" encoding="utf-8"?>
<!-- Generator: Adobe Illustrator 18.1.1, SVG Export Plug-In . SVG Version: 6.00 Build 0)  -->
<svg version="1.1" baseProfile="basic" id="Layer_1"
	 xmlns="http://www.w3.org/2000/svg" xmlns:xlink="http://www.w3.org/1999/xlink" x="0px" y="0px" viewBox="0 0 64 58.5"
	 xml:space="preserve">
<g>
	<g>
		<defs>
			<rect id="SVGID_1_" x="-24.5" y="-437.1" width="791.9" height="560.3"/>
		</defs>
		<use xlink:href="#SVGID_1_"  overflow="visible" fill="#FFFFFF"/>
		<clipPath id="SVGID_2_">
			<use xlink:href="#SVGID_1_"  overflow="visible"/>
		</clipPath>
		<path clip-path="url(#SVGID_2_)" fill="#FFFFFF" stroke="#FFFFFF" stroke-miterlimit="10" d="M32,6.9c5.5-5.7,12-7.7,19.4-5.5
			C59.8,4.1,64.7,12.9,63.3,22c-1.1,7.4-5.2,13.1-10.5,17.9c-6.1,5.5-12.4,10.6-18.6,15.8c-0.7,0.7-1.5,1.3-2.3,2.1
			c-7.8-6.9-15.7-13.4-23.1-20.4c-5.3-5-8.4-11.2-8.2-18.8c0.1-7.4,3.3-13.2,10-16.3c6.9-3.1,13.4-2,19.2,2.7
			C30.6,5.5,31.2,6.2,32,6.9z"/>
	</g>
</g>
</svg>
