<?xml version="1.0" encoding="utf-8"?>
<!-- Generator: Adobe Illustrator 18.1.1, SVG Export Plug-In . SVG Version: 6.00 Build 0)  -->
<svg version="1.1" baseProfile="basic" id="Layer_1"
	 xmlns="http://www.w3.org/2000/svg" xmlns:xlink="http://www.w3.org/1999/xlink" x="0px" y="0px" viewBox="0 0 155.3 137.3"
	 xml:space="preserve">
<g>
	<g>
		<defs>
			<rect id="SVGID_1_" x="-128.2" y="-423" width="791.9" height="560.3"/>
		</defs>
		<clipPath id="SVGID_2_">
			<use xlink:href="#SVGID_1_"  overflow="visible"/>
		</clipPath>
		<path clip-path="url(#SVGID_2_)" fill="none" stroke="#FFFFFF" stroke-miterlimit="10" d="M42.3,16.9c0-0.9,0.5-1.6,1.5-1.6h11.9
			c1,0,1.5,0.7,1.5,1.6v3.4h-15L42.3,16.9L42.3,16.9z M60.9,14.7c0-1.6-1.3-2.9-2.9-2.9H41.4c-1.6,0-2.9,1.3-2.9,2.9v5.5H27.8v47.4
			h43.8V20.2H60.9L60.9,14.7L60.9,14.7z M13.5,23.7v40.5c0,1.9,1.5,3.5,3.5,3.5h9V20.3h-9C15,20.2,13.5,21.8,13.5,23.7z M82.9,20.2
			h-9.4v47.4h9.4c1.9,0,3.5-1.5,3.5-3.5V23.6C86.4,21.8,84.8,20.2,82.9,20.2z"/>
	</g>
</g>
</svg>
